<?xml version="1.0" encoding="utf-8"?>
<!-- Generator: Adobe Illustrator 27.0.1, SVG Export Plug-In . SVG Version: 6.00 Build 0)  -->
<svg version="1.1" xmlns="http://www.w3.org/2000/svg" xmlns:xlink="http://www.w3.org/1999/xlink" x="0px" y="0px"
	 viewBox="0 0 1464.4 1658.6" style="enable-background:new 0 0 1464.4 1658.6;" xml:space="preserve">
<style type="text/css">
	.st2{fill:none;stroke:#FFFFFF;stroke-width:6;stroke-miterlimit:10;}
</style>
<g id="Ebene_1" >
	<path class="st2" d="M1151.4,281.7c-46.4-36.5-321.2-246.9-601.6-157.9c-59.1,18.8-102.6,32.6-129,74.5
		c-71,112.9,67.7,292,310.1,773.9c127.8,254.2,179.2,383.2,121.8,483.2c-32.1,55.9-93.8,94.9-151.6,101.9
		c-158.3,18.9-351-195-464.6-538.5"/>
	<path class="st2" d="M1051.3,215.7c-52-27.9-359.2-187.3-619.8-51.1c-55,28.7-95.4,49.9-114.1,95.8
		C267,383.9,434.7,536.2,757.1,968.7c170,228.1,243,346.3,203.8,454.7c-21.9,60.6-75.8,109.8-131.6,126.7
		c-152.6,46.2-379.6-131.1-551-449.7"/>
	<path class="st2" d="M941.2,168.1C885.1,149.6,554.8,46,321.9,225.4c-49.1,37.8-85.3,65.7-95.7,114.2
		C198,469.9,389.6,590.8,782.2,960.7c207,195.1,299.5,298.8,279.7,412.4c-11.1,63.5-55.6,121.3-107.6,147.6
		c-142.3,71.9-396.6-63.2-620.7-347.1"/>
	<path class="st2" d="M824.4,140.3c-58.4-8.5-401.6-53.2-599.9,164c-41.8,45.8-72.6,79.5-74.5,129.1
		c-5.1,133.2,204.6,219,655.5,515.2c237.8,156.2,346.8,242.3,347,357.6c0.1,64.5-33.7,129.1-80.4,164
		c-127.6,95.6-401.5,6.6-671.6-234.1"/>
	<path class="st2" d="M704.7,133.2c-59,1.8-404.8,17.4-562.3,265.7c-33.2,52.4-57.7,90.9-50.9,140c18.2,132.1,239.6,180.1,735,393.5
		c261.3,112.5,383.6,178.4,403.9,291.9c11.3,63.4-10.8,133-50.7,175.5c-109.1,116.3-394.3,76.2-702-113.9"/>
	<path class="st2" d="M585.5,147.1c-57.8,12-395.6,87.4-507.7,359.3c-23.6,57.3-41,99.5-25.8,146.7C92.8,780,319.2,788.9,844.2,913
		c276.9,65.5,408.7,109.1,448.4,217.3c22.2,60.5,12.5,132.8-19.4,181.6c-87.2,133.4-375,143.6-711.1,9.7"/>
	<path class="st2" d="M470.6,181.4C415.7,203.2,96.1,336.1,33,623.4c-13.3,60.6-23.1,105.1,0,149c62.2,117.9,286.7,87.3,825.3,118.4
		c284,16.4,421.5,36.4,479.3,136.2c32.3,55.8,35.3,128.7,12.4,182.2c-62.7,146.6-344.4,206.5-698.7,133.1"/>
	<path class="st2" d="M363.3,235.1C313.1,266.2,21.5,452.6,9.1,746.4c-2.6,62-4.5,107.5,25.9,146.7
		c81.8,105.3,297.5,36.2,833.3-26.7c282.6-33.2,421.4-37.3,495.7,50.8c41.5,49.3,57.2,120.6,43.9,177.3
		c-36.3,155.2-303.3,263.2-664.9,252.4"/>
	<path class="st2" d="M267,306.7C223,346-31.9,580.2,7,871.7c8.2,61.5,14.2,106.7,51,140c98.8,89.5,299.3-16,816-171
		c272.5-81.8,408.5-109.9,497-36c49.5,41.3,77.2,108.8,74,167c-8.8,159.2-253,311.8-611,364"/>
	<path class="st2" d="M184.6,393.9C148.1,440.2-62.2,715.1,26.7,995.4c18.8,59.1,32.5,102.6,74.5,129c112.9,71,292-67.7,773.9-310.1
		c254.2-127.8,383.2-179.2,483.2-121.8c55.9,32.1,94.9,93.8,101.9,151.6c18.9,158.3-195,351-538.5,464.6"/>
	<path class="st2" d="M118.6,494.1c-27.9,52-187.3,359.2-51.1,619.8c28.7,55,49.9,95.4,95.8,114.1
		c123.5,50.3,275.8-117.4,708.3-439.8c228.1-170,346.3-243,454.7-203.8c60.6,21.9,109.8,75.8,126.7,131.6
		c46.2,152.6-131.1,379.6-449.7,551"/>
	<path class="st2" d="M71,604.2c-18.5,56.1-122.1,386.3,57.3,619.3c37.8,49.1,65.7,85.3,114.2,95.7
		c130.3,28.1,251.2-163.5,621.2-556.1c195.1-207,298.8-299.5,412.4-279.7c63.5,11,121.3,55.6,147.6,107.6
		c71.9,142.3-63.2,396.6-347.1,620.7"/>
	<path class="st2" d="M43.2,720.9c-8.5,58.4-53.2,401.7,164,599.9c45.8,41.8,79.5,72.6,129.1,74.5c133.2,5.1,219-204.7,515.2-655.5
		c156.2-237.8,242.3-346.8,357.6-347c64.5-0.1,129.1,33.7,164,80.4c95.6,127.6,6.6,401.5-234.1,671.6"/>
	<path class="st2" d="M36.2,840.6c1.8,59,17.4,404.8,265.7,562.3c52.4,33.2,90.9,57.7,140,50.9c132.1-18.2,180.1-239.6,393.5-735
		C948,457.6,1013.8,335.3,1127.3,315c63.4-11.3,133,10.8,175.5,50.7c116.3,109.1,76.2,394.3-113.9,702"/>
</g>
<g id="Ebene_4">
</g>
</svg>
