<?xml version="1.0" encoding="utf-8"?>
<!-- Generator: Adobe Illustrator 27.8.1, SVG Export Plug-In . SVG Version: 6.00 Build 0)  -->
<svg version="1.1" id="Layer_1" xmlns="http://www.w3.org/2000/svg" xmlns:xlink="http://www.w3.org/1999/xlink" x="0px" y="0px"
	 viewBox="0 0 1464 1464" style="enable-background:new 0 0 1464 1464;" xml:space="preserve">
<style type="text/css">
	.st0{fill:none;stroke:#FFFFFF;stroke-width:6;stroke-miterlimit:10;}
</style>
<g id="Ebene_1">
	<path class="st0" d="M1067.4,293.2C1030.3,264,810.4,95.7,586.2,166.9c-47.3,15-82,26.1-103.2,59.6
		c-56.8,90.3,54.2,233.6,248,619.1c102.2,203.3,143.4,306.5,97.5,386.5c-25.6,44.7-75.1,75.9-121.3,81.5
		c-126.6,15.1-280.8-156-371.7-430.8"/>
	<path class="st0" d="M987.3,240.3C945.6,218,700,90.5,491.5,199.5c-44,22.9-76.4,39.9-91.3,76.7c-40.3,98.8,93.8,220.6,351.7,566.5
		c136,182.4,194.4,277,163,363.8c-17.5,48.5-60.6,87.8-105.3,101.3c-122,37-303.7-104.9-440.8-359.7"/>
	<path class="st0" d="M899.2,202.3c-44.8-14.8-309.1-97.7-495.4,45.8c-39.2,30.2-68.2,52.5-76.6,91.4
		c-22.5,104.2,130.7,201,444.7,496.8c165.6,156,239.6,239,223.7,329.9c-8.9,50.8-44.5,97.1-86.1,118.1
		c-113.8,57.5-317.2-50.5-496.5-277.6"/>
	<path class="st0" d="M805.8,180.1c-46.8-6.8-321.3-42.6-479.9,131.2c-33.5,36.7-58.1,63.6-59.6,103.3
		c-4.1,106.6,163.6,175.2,524.4,412.1c190.2,124.9,277.4,193.8,277.5,286c0.1,51.6-26.9,103.3-64.3,131.2
		c-102.1,76.5-321.2,5.3-537.3-187.2"/>
	<path class="st0" d="M710,174.4c-47.2,1.4-323.9,13.9-449.8,212.5c-26.6,41.9-46.1,72.7-40.8,112c14.6,105.6,191.6,144,588,314.7
		c209,90,306.8,142.7,323.1,233.5c9,50.7-8.7,106.4-40.5,140.4c-87.3,93.1-315.4,60.9-561.5-91.2"/>
	<path class="st0" d="M614.7,185.5c-46.2,9.7-316.5,69.9-406.1,287.4c-18.9,45.8-32.8,79.6-20.6,117.3
		c32.6,101.6,213.7,108.6,633.7,207.9c221.4,52.4,327,87.3,358.7,173.8c17.8,48.4,10,106.3-15.5,145.3
		c-69.7,106.7-299.9,114.9-568.8,7.7"/>
	<path class="st0" d="M522.8,213c-44,17.5-299.5,123.8-350,353.6c-10.6,48.5-18.4,84.1,0,119.1c49.8,94.3,229.4,69.8,660.2,94.7
		c227.1,13.1,337.2,29.2,383.4,109c25.8,44.6,28.2,102.9,9.9,145.7c-50.2,117.3-275.5,165.1-558.9,106.5"/>
	<path class="st0" d="M436.9,255.9c-40.1,24.9-273.5,173.9-283.3,409c-2,49.5-3.6,86,20.7,117.3c65.4,84.2,238,29,666.6-21.3
		c226.1-26.6,337.1-29.8,396.6,40.6c33.2,39.5,45.8,96.5,35.1,141.9c-29.1,124.2-242.6,210.5-531.9,201.9"/>
	<path class="st0" d="M359.9,313.2C324.7,344.6,120.8,531.9,152,765.1c6.5,49.2,11.4,85.4,40.8,112c79,71.7,239.4-12.7,652.8-136.7
		c218-65.4,326.8-87.9,397.5-28.8c39.6,33,61.8,87.1,59.2,133.6c-7.1,127.4-202.4,249.4-488.8,291.2"/>
	<path class="st0" d="M294,383c-29.2,37-197.4,256.9-126.3,481.2c15,47.3,26,82,59.6,103.2c90.3,56.8,233.6-54.2,619.1-248
		c203.3-102.2,306.5-143.4,386.5-97.5c44.7,25.6,75.9,75.1,81.5,121.3c15.1,126.6-156,280.8-430.8,371.7"/>
	<path class="st0" d="M241.2,463.1c-22.3,41.6-149.8,287.3-40.9,495.8c22.9,44,39.9,76.4,76.7,91.3
		c98.8,40.2,220.6-93.9,566.5-351.9c182.4-136,277-194.4,363.8-163c48.5,17.5,87.8,60.6,101.3,105.3c37,122-104.9,303.7-359.7,440.8
		"/>
	<path class="st0" d="M203.1,551.1c-14.8,44.8-97.7,309.1,45.8,495.4c30.2,39.2,52.5,68.2,91.4,76.6
		c104.2,22.5,201-130.8,496.9-444.8c156-165.6,239-239.6,329.9-223.7c50.8,8.8,97.1,44.5,118.1,86.1
		c57.5,113.8-50.5,317.2-277.6,496.5"/>
	<path class="st0" d="M180.8,644.5c-6.8,46.8-42.6,321.3,131.2,479.9c36.7,33.5,63.6,58.1,103.3,59.6
		c106.6,4.1,175.2-163.8,412.1-524.4c124.9-190.2,193.8-277.4,286-277.5c51.6-0.1,103.3,26.9,131.2,64.3
		c76.5,102.1,5.3,321.2-187.2,537.3"/>
	<path class="st0" d="M175.2,740.3c1.4,47.2,13.9,323.9,212.5,449.8c41.9,26.6,72.7,46.1,112,40.8c105.6-14.6,144-191.6,314.7-588
		c90.1-208.9,142.7-306.8,233.5-323c50.7-9,106.4,8.7,140.4,40.5c93.1,87.3,60.9,315.4-91.2,561.5"/>
</g>
</svg>
